<svg xmlns="http://www.w3.org/2000/svg" viewBox="0 0 24 24"><path fill="currentColor" d="M 9,3 V 5 H 7 C 5.8954316,5 5,5.8954316 5,7 V 9 H 3 v 2 h 2 v 2 H 3 v 2 h 2 v 2 c 0,1.104568 0.8954316,2 2,2 h 2 v 2 h 2 v -2 h 2 v 2 h 2 v -2 h 2 c 1.104568,0 2,-0.895432 2,-2 v -2 h 2 v -2 h -2 v -2 h 2 V 9 H 19 V 7 C 19,5.8954316 18.104568,5 17,5 H 15 V 3 H 13 V 5 H 11 V 3 Z m 2.496094,5.2441406 h 1.023437 v 1.8632814 h 3.015625 v 0.953125 h -2.630859 c 0.671999,1.231999 1.808564,2.432266 2.976562,3.072265 -0.231999,0.192 -0.560703,0.568032 -0.720703,0.832032 -1.007999,-0.648 -1.928625,-1.673798 -2.640625,-2.841797 v 3.632812 h -1.023437 v -3.591797 c -0.704,1.175999 -1.6164388,2.192032 -2.6484378,2.832032 -0.1679998,-0.24 -0.4947502,-0.624407 -0.71875,-0.816406 1.1919989,-0.648 2.2951728,-1.855142 2.9511718,-3.119141 H 8.4960938 v -0.953125 h 3.0000002 z" /></svg>
